<svg xmlns="http://www.w3.org/2000/svg" viewBox="0 0 170 85" stroke="#000000" fill="none" stroke-linecap="round" stroke-linejoin="round" stroke-width="10"><path d="M5,80 L5,15 A10,10,0 0,1 15,5 A10,10,0 0,1 25,15 L25,70 A10,10,0 0,0 35,80 A10,10,0 0,0 45,70 L45,15 A10,10,0 0,1 55,5 A10,10,0 0,1 65,15 L65,70 A10,10,0 0,0 75,80 A10,10,0 0,0 85,70 L85,15 A10,10,0 0,1 95,5 A10,10,0 0,1 105,15 L105,70 A10,10,0 0,0 115,80 A10,10,0 0,0 125,70 L125,5 "/><path d="M 85,45 A 10,10,0 0,1 95,35 A 10,10,0 0,0 105,25 "/><path d="M 125,35 A 20,20,0 0,0 145,15 L 145,5 "/><path d="M 125,35 A 20,20,0 0,1 145,55 L 145,70 A 10,10,0 0,0 155,80 A 10,10,0 0,0 165,70 L 165,5 "/></svg>